<svg width="185" height="72" viewBox="0 0 185 72" fill="none" xmlns="http://www.w3.org/2000/svg">
    <path
        d="M50.2 45.6H23.6L19 72H0.9L13.6 -2.86102e-06H63.8L61 15.6H28.8L26.3 30H52.9L50.2 45.6ZM110.356 45.6H83.7563L79.1563 72H61.0563L73.7563 -2.86102e-06H123.956L121.156 15.6H88.9563L86.4563 30H113.056L110.356 45.6ZM161.913 -2.86102e-06C170.646 -2.86102e-06 176.879 2.2 180.613 6.6C183.346 9.93333 184.713 14.1 184.713 19.1C184.713 20.9 184.546 22.8 184.213 24.8L180.313 47.1C178.979 54.6333 175.713 60.6667 170.513 65.2C165.313 69.7333 158.579 72 150.313 72H121.213L133.913 -2.86102e-06H161.913ZM155.613 15.6H149.113L142.013 56.4H151.513C154.646 56.4 157.079 55.5667 158.813 53.9C160.613 52.1667 161.846 49.3667 162.513 45.5L165.413 29.1C165.679 27.6333 165.813 26.3 165.813 25.1C165.813 18.7667 162.413 15.6 155.613 15.6Z"
        fill="#161618" />
    <path
        d="M162.948 15.6041C160.882 16.9754 154.29 45.773 153.007 45.2778C150.046 44.1342 159.179 23.0106 160.054 20.8991C161.545 17.2996 163.634 5.91772 163.634 9.79443C163.634 14.5613 161.243 18.4069 160.206 23.0317C159.536 26.0187 158.149 34.4972 158.149 26.7823C158.149 21.23 158.149 15.6777 158.149 10.1254C158.149 8.76243 157.677 12.8169 157.311 14.1333C156.172 18.2367 154.631 22.2349 153.503 26.3411C152.437 30.2191 150.957 35.321 150.646 27.5177C150.596 26.2682 150.071 14.4945 151.636 18.6928C152.001 19.6699 153.907 28.1796 151.979 28.1796C150.839 28.1796 151.294 25.385 151.294 24.8703C151.294 23.3013 149.878 19.462 151.332 20.1637C152.803 20.8739 152.074 29.0775 151.979 30.827C151.818 33.7769 150.514 24.8935 151.141 22.0022C151.825 18.8485 150.847 28.8532 150.646 30.0181C150.257 32.2696 149.504 35.8767 150.075 31.1947C150.347 28.9637 150.643 26.9156 151.636 24.8703C152.179 23.7528 152.665 20.0694 152.665 21.3035C152.665 22.8428 152.728 27.3842 152.741 27.3339C153.435 24.6539 156.249 19.7186 158.302 17.7368C160.388 15.7227 161.697 21.1611 161.92 21.8551C162.171 22.6354 163.034 27.5968 163.786 28.0325C165.152 28.8236 166.446 22.2578 167.747 21.708C168.478 21.3992 166.298 30.7309 166.071 31.636C165.779 32.8039 164.388 37.6958 163.786 33.6951C163.117 29.2478 163.634 24.4392 163.634 19.943C163.634 17.014 164.158 20.5437 164.319 21.6345C164.987 26.1491 165.005 30.5327 165.005 35.0924C165.005 38.9962 162.19 42.727 160.892 46.4177C160.361 47.9248 158.993 52.4142 157.806 53.3305C157.363 53.6729 160.892 42.9052 161.577 41.2698C163.368 36.9953 164.636 31.9278 166.986 27.959C169.131 24.3347 164.839 36.0477 163.634 40.0564C162.722 43.0886 161.302 46.01 160.511 49.0651C160.159 50.4245 160.614 52.342 159.673 53.4776C159.312 53.9134 159.268 52.9076 159.178 52.5583C158.419 49.6287 159.106 46.0422 159.901 43.1819C160.058 42.6167 162.134 35.0056 162.796 38.6959C163.807 44.3348 160.755 49.3525 160.206 54.6542C159.449 61.9646 148.676 53.8087 146.837 51.639C144.282 48.6234 144.414 42.7133 146.114 39.4313C147.56 36.6393 150.438 31.9581 150.608 28.8414C150.761 26.0325 151.979 23.4852 151.979 20.8991C151.979 13.9414 150.608 23.9448 150.608 26.2675C150.608 27.1008 151.372 33.4088 150.303 33.9893C149.134 34.624 148.699 31.0621 148.551 30.3858C147.948 27.6209 147.18 25.0566 147.18 22.2228C147.18 20.7784 147.1 18.6934 147.18 21.5609C147.291 25.5146 147.866 29.4087 147.866 33.401C147.866 35.0692 147.917 38.1748 147.332 34.5041C146.983 32.3143 145.623 17.5866 148.894 18.2884C150.313 18.5928 152.213 19.3037 153.731 19.7224C154.904 20.046 155.52 21.193 156.74 21.4874C157.022 21.5554 158.698 21.5609 158.34 21.5609C156.509 21.5609 145.742 17.2867 146.647 16.4131C147.38 15.7056 151.149 16.266 152.055 16.266C155.933 16.266 160.43 15.6211 164.167 16.7808C169.129 18.3205 156.675 22.1941 156.093 23.1788C155.651 23.924 154.04 24.6605 153.35 25.6792C151.962 27.7297 151.634 32.0446 151.294 34.4305C150.85 37.5337 150.608 40.4062 150.608 43.5496C150.608 45.0319 150.473 45.9071 151.446 44.0644C153.01 41.1031 154.373 38.0509 155.94 35.0924C156.625 33.7994 159.899 26.804 160.168 30.5697C160.419 34.079 160.206 41.1227 160.206 41.1227C160.206 41.1227 162.113 32.475 163.558 28.2899C164.989 24.145 164.412 34.8487 163.634 36.6735C162.847 38.518 161.661 42.5859 161.577 38.1076C161.497 33.8573 161.577 29.5995 161.577 25.3483C161.577 22.9092 161.671 30.2281 161.577 32.6656C161.552 33.3318 160.649 33.9681 160.358 33.0333C159.608 30.6203 160.142 27.2219 160.206 24.7232C160.253 22.8703 160.535 21.0603 161.501 19.4282C162.824 17.1934 161.577 24.576 161.577 27.15C161.577 34.0911 160.206 40.8504 160.206 47.7414C160.206 51.2966 160.366 43.3523 160.587 42.4097C161.008 40.609 161.064 37.8312 161.996 36.2323C163.211 34.1472 163.456 37.1084 163.215 37.9605C162.346 41.0363 161.637 44.1612 160.739 47.2266C160.034 49.6333 158.342 51.9923 158.149 54.5071C157.808 58.9549 158.877 45.5523 160.168 41.2698C161.039 38.3777 161.821 35.4536 162.796 32.592C163.387 30.8579 164 30.047 163.482 32.2979C162.218 37.7881 158.546 42.7014 156.397 47.8885C154.37 52.7807 154.679 42.3852 154.759 40.8286C155.048 35.2658 157.163 29.8796 157.464 24.3555C157.55 22.7687 158.073 27.2905 158.073 27.5545C158.073 31 156.749 34.2782 156.093 37.6295C155.334 41.499 154.513 45.4095 154.036 49.3225C154.012 49.5217 153.388 53.4777 153.007 53.1834C152.052 52.4452 152.202 48.5573 152.131 47.5943C151.82 43.3493 152.088 39.1692 152.512 34.9453C152.934 30.7517 154.142 18.2994 154.683 22.4802C155.418 28.1576 153.143 34.0114 151.979 39.5048C151.186 43.2489 150.718 48.5729 150.075 41.564C149.406 34.277 151.979 26.7918 151.979 19.5753C151.979 17.3069 151.343 20.2074 151.255 20.9726C150.909 23.9819 150.05 26.9205 149.199 29.7975C147.708 34.8349 147.866 8.89435 147.866 14.1333C147.866 17.7123 147.866 21.2913 147.866 24.8703C147.866 30.2054 149.32 25.3527 151.141 22.7376C152.727 20.4591 152.766 16.9279 156.397 16.9279C156.776 16.9279 159.144 17.5204 159.368 17.7368C161.104 19.4124 154.103 18.0765 153.655 17.9207C150.585 16.8538 147.684 16.36 144.552 15.6041C143.012 15.2324 150.291 14.9423 151.636 14.9423C153.57 14.9423 148.988 14.3411 148.551 13.9862C146.275 12.1357 149.89 12.9567 151.37 12.9567C156.743 12.9567 171.861 11.6615 171.861 19.8695C171.861 21.8564 167.331 37.0985 165.348 30.7167C164.899 29.2727 164.518 19.6287 163.634 19.5753C162.552 19.5101 161.16 26.3383 160.511 27.5913C159.876 28.8175 158.768 33.5338 156.473 31.7095C153.196 29.1034 152.694 23.2732 150.075 19.8695C148.477 17.7929 147.822 15.4119 144.438 15.6041C142.347 15.7229 141.45 20.57 141.048 21.9286C139.581 26.8846 141.206 21.2038 142.381 19.2076C143.305 17.6374 145.84 10.0161 147.904 9.68412C150.091 9.33216 149.237 15.9897 149.237 17.5897"
        stroke="#161618" stroke-width="3" stroke-linecap="round" />
    <path
        d="M147.516 32.7268C147.32 32.7742 146.792 33.677 146.683 33.8737C146.389 34.4054 145.856 34.8921 145.68 35.4675C145.404 36.3746 144.949 37.3513 144.87 38.2976C144.79 39.2611 144.515 40.2797 144.323 41.232C144.079 42.4359 144.045 43.5605 144.045 44.7846C144.045 46.942 144.045 49.0993 144.045 51.2567C144.045 52.5526 144.045 53.8485 144.045 55.1444C144.045 55.6905 144.045 56.2367 144.045 56.7829C144.045 57.3232 143.83 56.5119 143.435 56.5967C143.168 56.654 143.487 58.8746 143.042 57.4234C142.762 56.512 142.517 55.6041 142.517 54.6528C142.517 54.3615 142.5 54.0648 142.517 53.774C142.53 53.5713 142.795 53.5332 142.795 53.3048C142.795 52.7809 143.103 51.3242 142.764 51.7333C142.618 51.9095 142.635 52.1711 142.571 52.3813C142.387 52.9939 142.03 53.49 141.707 54.0347C141.394 54.5636 140.74 55.662 140.712 56.2764C140.686 56.8608 140.568 57.3159 140.442 57.8628C140.32 58.3923 141.625 57.5928 141.746 57.5276C142.615 57.0579 143.425 56.5822 144.323 56.1573C144.717 55.9705 145.313 55.8349 145.649 55.5689C145.962 55.3221 146.446 55.1146 146.868 55.1146C146.944 55.1146 146.726 55.1719 146.668 55.2188C146.445 55.3983 146.287 55.6599 146.128 55.8891C145.853 56.2845 145.68 56.7393 145.403 57.1255C145.232 57.363 144.532 57.7958 144.832 57.7958C145.544 57.7958 145.939 57.5997 146.606 57.3936C147.276 57.1867 147.85 56.8537 148.55 56.6935C148.998 56.5912 149.544 56.4496 149.954 56.2913C150.878 55.9347 151.825 55.538 152.793 55.2784C154.065 54.9372 154.6 54.1911 155.015 53.0292C155.536 51.5712 155.64 49.993 155.563 48.4638C155.516 47.5495 155.648 46.3231 155.323 45.4623C155.097 44.8606 155.024 43.948 155.015 43.3174C155.005 42.6461 155.018 41.8287 155.169 41.1725C155.359 40.349 156.15 39.586 156.573 38.8637C156.878 38.3444 157.376 37.8536 157.376 37.2252C157.376 36.8702 157.67 36.4851 157.869 36.2048C158.187 35.759 158.643 35.2657 158.425 36.2123C158.102 37.6149 158.098 39.0426 157.761 40.4575C157.49 41.5972 157.098 42.7872 157.098 43.9654C157.098 44.3309 157.098 44.1134 157.098 43.876C157.098 42.8731 157.378 41.9483 157.568 40.9714C157.968 38.9258 158.051 36.8194 158.486 34.7823C158.629 34.1164 158.726 33.1064 159.104 32.5331C159.264 32.2892 159.32 32.1006 159.566 31.8926C161.218 30.4978 156.936 35.2846 155.57 36.9422C154.436 38.3181 153.425 39.7852 152.415 41.2469C151.465 42.6227 150.347 43.8718 149.406 45.2538C148.246 46.9588 147.017 48.8117 146.436 50.7949C146.299 51.2633 146.058 52.6688 145.981 52.1876C145.571 49.6152 145.58 47.0588 145.295 44.4718C145.117 42.857 145.176 41.3721 145.403 39.7723C145.477 39.248 145.418 38.6658 145.85 38.2902C146.214 37.9736 146.25 38.1746 146.406 38.5807C146.773 39.5394 146.797 40.5774 147.131 41.5448C147.257 41.9107 147.289 42.3709 147.447 42.7067C147.877 43.62 147.772 42.0958 147.786 41.7012C147.837 40.3297 147.743 38.9539 147.794 37.5827C147.807 37.2336 148.241 37.4764 148.35 37.6422C149.206 38.9554 149.117 41.371 148.658 42.811C148.382 43.6768 148.278 44.603 147.995 45.4623C147.939 45.6315 147.473 46.788 147.3 46.788C147.062 46.788 147.046 45.9028 147.131 46.1177C147.339 46.6463 147.182 47.3165 147.084 47.8456C146.792 49.4388 146.286 50.9514 145.819 52.5004C145.586 53.2741 145.587 54.0663 145.403 54.8465C145.307 55.2484 145.062 55.7349 145.187 56.1573C145.268 56.4322 145.369 56.9174 145.572 57.1255C145.872 57.4321 146.273 57.6468 146.714 57.6468C147.333 57.6468 147.875 57.4607 148.458 57.2893C149.004 57.1284 149.585 57.1685 150.124 56.9914C151.127 56.6616 152.089 56.7233 153.148 56.7233C153.167 56.7233 154.24 56.8566 153.981 56.9616C153.132 57.3069 152.003 56.4188 151.312 56.053C150.745 55.753 150.173 55.4508 149.599 55.1742C149.293 55.0263 149.116 54.7082 148.782 54.6007C148.558 54.5287 148.459 54.5497 148.28 54.3773C147.789 53.903 146.683 53.9798 146.683 53.2303C146.683 52.5747 147.445 52.091 147.964 51.7631C148.625 51.3447 148.35 53.007 148.35 53.342C148.35 53.8901 148.809 55.0354 148.211 55.2784C146.719 55.8847 145.051 56.3425 143.505 56.7903C143.299 56.8499 141.313 57.3972 141.275 57.1627C141.109 56.1206 141.717 54.8165 141.854 53.774C141.857 53.7496 142.299 52.0749 142.209 52.0908C141.976 52.1316 141.554 52.8082 141.414 52.9696C140.846 53.6278 140.352 54.3627 139.817 55.0475C139.248 55.7762 138.738 56.7856 138.012 57.3861C137.989 57.405 137.647 58.0702 137.858 57.7362C138.462 56.7793 139.252 55.9873 139.802 54.9805C140.289 54.089 140.803 53.2308 141.422 52.4185C141.603 52.1811 142.312 51.153 141.669 51.9121C140.244 53.593 138.646 55.1352 137.272 56.8573C136.579 57.7251 135.776 58.4562 135.027 59.2704C134.758 59.5624 134.46 60.1578 134.124 60.3429C133.901 60.4659 134.047 61.3517 134.047 61.5494C134.047 61.735 134.013 61.9556 134.055 62.1378C134.116 62.4057 135.241 61.2043 135.273 61.1696C136.431 59.9341 137.766 58.9371 139.123 57.9149C141.327 56.2545 143.197 54.3891 145.063 52.3887C147.361 49.9255 149.181 47.4262 150.402 44.3452C150.988 42.8651 151.688 41.5444 152.654 40.2489C152.948 39.8545 154.51 37.9436 153.734 39.5191C153.193 40.6179 152.461 41.5778 151.767 42.5875C150.813 43.9768 150.099 45.5205 149.383 47.0338C148.458 48.9907 147.311 50.8708 146.629 52.9175C146.605 52.99 146.49 53.3178 146.498 53.2973C146.828 52.458 147.333 51.7037 147.794 50.929C149.039 48.8361 149.757 46.2496 151.513 44.4792C151.559 44.432 151.821 44.1304 151.821 44.2335C151.821 45.2511 151.292 46.3029 150.926 47.2349C150.033 49.5079 149.145 51.742 148.697 54.1464C148.681 54.2313 148.277 55.7185 148.627 55.6508C149.182 55.5438 149.707 54.2001 149.908 53.8485C150.909 52.096 151.97 50.4686 153.426 49.0298C153.623 48.8348 155.958 46.3224 156.404 46.7285C157.44 47.6739 156.624 49.7349 156.234 50.7502C155.664 52.2319 154.991 53.6338 154.398 55.0922C154.293 55.3487 154.138 55.6203 154.074 55.8891C153.996 56.2158 154.935 55.5831 154.984 55.5316C155.927 54.5513 156.972 53.5388 157.846 52.5079C158.255 52.0259 157.091 53.9387 156.897 54.1836C156.21 55.0532 155.58 56.1988 155.185 57.2297C154.962 57.8094 154.33 56.5087 154.251 56.3732C153.423 54.9474 151.938 53.42 150.155 53.1633C147.383 52.7642 144.12 54.3674 141.761 55.5614C140.373 56.2644 139.18 57.1864 137.873 57.9894C137.685 58.1051 138.002 57.5614 138.151 57.401C139.902 55.5189 142.314 54.2182 144.369 52.6792C146.347 51.198 148.227 49.5477 150.263 48.1435C151.072 47.5854 152.13 47.3738 153.071 47.071"
        stroke="#161618" stroke-width="3" stroke-linecap="round" />
    <path
        d="M168.461 7.49074C168.636 7.77173 168.728 8.16314 168.721 8.60103C168.714 9.03892 168.609 9.4974 168.423 9.90158L158.369 31.7846L166.217 33.7676C166.448 33.8257 166.645 33.9948 166.785 34.2539C166.924 34.513 167 34.8508 167.003 35.2256C167.005 35.6004 166.935 35.9959 166.799 36.3631C166.664 36.7303 166.47 37.0532 166.241 37.292L138.921 65.8641C138.657 66.1408 138.36 66.2899 138.08 66.287C137.8 66.2841 137.552 66.1295 137.378 65.8483C137.204 65.567 137.113 65.1758 137.12 64.7383C137.127 64.3009 137.232 63.843 137.418 63.4393L147.473 41.5524L139.625 39.5694C139.394 39.5113 139.197 39.3422 139.057 39.0831C138.917 38.824 138.842 38.4862 138.839 38.1114C138.836 37.7366 138.907 37.3411 139.042 36.9739C139.178 36.6067 139.372 36.2838 139.6 36.045L166.921 7.47289C167.185 7.19655 167.481 7.04752 167.761 7.05005C168.041 7.05258 168.288 7.20651 168.462 7.48681L168.461 7.49074Z"
        fill="white" />
</svg>